<svg width="581" height="298" viewBox="0 0 581 298" fill="none" xmlns="http://www.w3.org/2000/svg">
<path fill-rule="evenodd" clip-rule="evenodd" d="M45.6108 174.873C54.8938 190.434 71.8818 200.893 90.7883 200.893C118.73 200.893 134.14 176.172 134.14 176.172L136.121 182.764C123.186 200.006 100.071 210.401 74.2026 210.401C44.4349 210.401 18.7518 195.854 6.93137 174.873C2.4755 166.981 2.15911e-05 158.138 2.15911e-05 148.852C-0.0309219 114.813 33.2024 87.2395 74.2026 87.2395C103.166 87.2395 126.497 99.9487 138.72 118.363L90.1075 148.155L117.833 104.544C109.911 99.4416 100.164 94.6558 90.1075 94.6558C61.6395 94.6558 38.2153 118.965 38.2153 148.123C38.2153 157.885 40.9073 167.076 45.5798 174.873H45.6108Z" fill="#0F2466"/>
<path fill-rule="evenodd" clip-rule="evenodd" d="M175.733 174.843C175.579 175.826 175.517 176.84 175.517 177.854C175.517 188.915 184.274 197.884 195.073 197.884C205.872 197.884 214.629 188.915 214.629 177.854C214.629 176.84 214.567 175.826 214.413 174.843C212.989 165.208 204.882 157.824 195.073 157.824C185.264 157.824 177.157 165.208 175.733 174.843ZM248.296 174.843L258.012 208.375H223.912L217.198 185.397C212.711 198.613 197.549 208.375 179.57 208.375C158.034 208.375 140.582 194.43 140.582 177.252C140.582 176.459 140.612 175.635 140.705 174.843C142.252 158.806 159.055 146.16 179.57 146.16C191.205 146.16 201.664 150.249 208.812 156.714L199.529 124.926H160.385C160.385 124.926 166.884 120.932 195.754 110.156C224.624 99.4121 233.783 124.926 233.783 124.926L248.265 174.875L248.296 174.843Z" fill="#0F2466"/>
<path fill-rule="evenodd" clip-rule="evenodd" d="M357.308 174.833V208.365H322.218V134.677C322.218 129.257 317.916 124.852 312.625 124.852C308.571 124.852 305.075 127.451 303.682 131.096V208.333H269.242V124.852H249.16C249.16 124.852 277.102 107.516 286.787 107.516C295.977 107.516 302.754 114.742 303.62 123.933C317.143 116.485 330.541 107.516 339.732 107.516C348.922 107.516 356.998 115.281 357.277 124.979V174.801L357.308 174.833Z" fill="#0F2466"/>
<path fill-rule="evenodd" clip-rule="evenodd" d="M411.365 174.837L416.254 191.381C416.347 198.481 422.041 204.122 429.003 204.122C435.965 204.122 441.906 198.195 441.906 190.906C441.906 190.399 441.906 189.892 441.814 189.385L437.667 174.869L423.093 123.842C422.381 117.218 416.904 112.084 410.251 112.084C403.598 112.084 397.41 118.391 396.605 124.888L411.365 174.837ZM467.187 174.837C460.534 195.47 441.566 210.366 419.194 210.366C396.822 210.366 377.853 195.47 371.2 174.837C369.56 169.735 368.663 164.283 368.663 158.61C368.663 130.022 391.283 106.854 419.194 106.854C447.105 106.854 469.725 130.022 469.725 158.61C469.725 164.283 468.827 169.735 467.187 174.837Z" fill="#0F2466"/>
<path fill-rule="evenodd" clip-rule="evenodd" d="M525.266 174.833V208.365H490.825V124.852H471.579C471.579 124.852 498.685 107.516 508.37 107.516C517.561 107.516 524.337 114.742 525.204 123.933C538.726 116.485 552.125 107.516 561.315 107.516C570.505 107.516 578.581 115.281 578.86 124.979V208.333H543.77V134.677C543.77 129.257 539.469 124.852 534.177 124.852C530.124 124.852 526.627 127.451 525.235 131.096V174.801L525.266 174.833Z" fill="#0F2466"/>
</svg>
