<svg width="334" height="298" viewBox="0 0 334 298" fill="none" xmlns="http://www.w3.org/2000/svg">
<path d="M327.625 177.484V195.774H266.692V103.744H288.145V177.484H327.625ZM45.9091 195.774C67.8882 195.774 86.3613 181.142 91.625 161.343L145.058 202.015L198.461 161.362V195.774H259.392V177.484H219.914V103.744H198.461V138.156L147.243 177.145L135.792 168.426L160.303 149.759L187 129.437L171.765 117.825L120.536 156.823L109.085 148.104L160.303 109.115L145.058 97.5027L91.625 138.176C86.3613 118.376 67.8882 103.744 45.9091 103.744H7.62231V195.774H45.9091ZM29.0749 177.484V122.034H45.9091C60.1414 122.034 71.6821 134.45 71.6821 149.759C71.6821 165.068 60.1414 177.484 45.9091 177.484H29.0749Z" fill="#0F2466"/>
</svg>
