<svg width="272" height="298" viewBox="0 0 272 298" fill="none" xmlns="http://www.w3.org/2000/svg">
<path d="M20.1507 98.9768H0.776855V118.486H20.1507V98.9768Z" fill="#0F2466"/>
<path d="M19.6678 200.604V130.343H1.32812V200.604H19.6678ZM141.564 201.298V184.08C138.875 184.08 136.6 183.941 134.946 183.664C133.015 183.386 131.567 182.692 130.602 181.72C129.637 180.748 129.016 179.359 128.671 177.554C128.395 175.818 128.258 173.527 128.258 170.75V146.173H141.564V130.343H128.258V102.919H109.849V170.889C109.849 176.652 110.332 181.511 111.297 185.399C112.262 189.218 113.917 192.342 116.192 194.703C118.467 197.063 121.501 198.729 125.155 199.771C128.878 200.812 133.567 201.298 139.151 201.298H141.564ZM246.914 200.604V97.5034H228.505V200.604H246.914ZM92.13 137.216C87.0281 131.662 79.8575 128.885 70.7567 128.885C66.3442 128.885 62.3454 129.787 58.6913 131.593C55.1061 133.398 52.0035 135.897 49.5904 139.091L48.5561 140.41V139.23V130.343H30.4234V200.604H48.6941V163.182V165.751C48.6941 165.335 48.6941 164.918 48.6941 164.502C48.9008 157.906 50.4865 153.046 53.5201 149.922C56.7608 146.589 60.6907 144.923 65.172 144.923C70.4809 144.923 74.5489 146.589 77.2377 149.783C79.8575 152.976 81.2364 157.489 81.2364 163.252V163.391V200.535H99.7831V160.683C99.8519 150.685 97.2321 142.771 92.13 137.216ZM218.991 165.335C218.991 160.266 218.094 155.545 216.371 151.102C214.578 146.728 212.096 142.84 208.994 139.508C205.822 136.175 202.03 133.606 197.617 131.731C193.205 129.857 188.31 128.954 183.001 128.954C177.968 128.954 173.211 129.926 168.798 131.801C164.386 133.745 160.525 136.314 157.284 139.577C154.044 142.84 151.423 146.728 149.562 151.171C147.632 155.615 146.735 160.405 146.735 165.474C146.735 170.542 147.632 175.332 149.424 179.776C151.217 184.219 153.768 188.107 156.939 191.37C160.111 194.633 164.041 197.272 168.591 199.146C173.142 201.09 178.175 202.062 183.553 202.062C199.134 202.062 208.787 194.911 214.578 188.246L201.34 178.109C198.583 181.442 191.964 185.955 183.69 185.955C178.519 185.955 174.245 184.774 171.004 182.345C167.764 179.984 165.557 176.652 164.386 172.555L164.178 171.93H218.991V165.335ZM164.316 158.878C164.316 153.74 170.177 144.784 182.794 144.715C195.411 144.715 201.34 153.671 201.34 158.808L164.316 158.878Z" fill="#0F2466"/>
<path d="M267.876 191.455C267.529 190.621 267.046 189.927 266.427 189.302C265.805 188.677 265.118 188.191 264.289 187.844C263.462 187.497 262.565 187.289 261.67 187.289C260.705 187.289 259.877 187.497 259.05 187.844C258.222 188.191 257.533 188.677 256.912 189.302C256.292 189.927 255.809 190.621 255.465 191.455C255.12 192.288 254.913 193.19 254.913 194.093C254.913 195.065 255.12 195.898 255.465 196.731C255.809 197.564 256.292 198.258 256.912 198.883C257.533 199.508 258.222 199.994 259.05 200.341C259.877 200.688 260.773 200.897 261.67 200.897C262.636 200.897 263.462 200.688 264.289 200.341C265.118 199.994 265.805 199.508 266.427 198.883C267.046 198.258 267.529 197.564 267.876 196.731C268.219 195.898 268.427 194.995 268.427 194.093C268.427 193.19 268.219 192.288 267.876 191.455ZM266.771 196.314C266.495 197.009 266.083 197.633 265.601 198.12C265.118 198.605 264.496 199.022 263.806 199.3C263.118 199.577 262.428 199.716 261.601 199.716C260.842 199.716 260.084 199.577 259.394 199.3C258.705 199.022 258.084 198.605 257.602 198.12C257.119 197.633 256.706 197.009 256.43 196.314C256.154 195.62 256.016 194.926 256.016 194.093C256.016 193.329 256.154 192.565 256.43 191.871C256.706 191.177 257.119 190.552 257.602 190.066C258.084 189.58 258.705 189.163 259.394 188.886C260.084 188.608 260.773 188.469 261.601 188.469C262.359 188.469 263.118 188.608 263.806 188.886C264.496 189.163 265.118 189.58 265.601 190.066C266.083 190.552 266.495 191.177 266.771 191.871C267.046 192.565 267.186 193.259 267.186 194.093C267.254 194.926 267.046 195.62 266.771 196.314ZM262.911 194.648C263.462 194.579 263.877 194.37 264.22 194.023C264.564 193.676 264.771 193.19 264.771 192.496C264.771 191.732 264.564 191.177 264.084 190.76C263.669 190.344 262.911 190.135 262.014 190.135H258.981V197.981H260.429V194.787H261.463L263.394 197.981H264.911L262.911 194.648ZM262.152 193.537C261.945 193.537 261.739 193.537 261.463 193.537H260.429V191.316H261.463C261.67 191.316 261.876 191.316 262.152 191.316C262.359 191.316 262.567 191.385 262.772 191.455C262.979 191.524 263.118 191.663 263.187 191.801C263.255 191.94 263.326 192.149 263.326 192.426C263.326 192.704 263.255 192.912 263.187 193.051C263.047 193.19 262.911 193.329 262.772 193.398C262.567 193.468 262.359 193.537 262.152 193.537Z" fill="#0F2466"/>
</svg>
