<svg width="690" height="298" viewBox="0 0 690 298" fill="none" xmlns="http://www.w3.org/2000/svg">
<path fill-rule="evenodd" clip-rule="evenodd" d="M90.6672 136.008V180.689H45.9994C46.7257 179.098 80.4989 146.046 84.8568 141.517C85.8252 140.415 89.5777 136.498 90.6672 136.008ZM39.7047 95.8566C40.6731 94.8773 44.5468 90.5928 45.3941 90.5928V180.322C44.5468 180.077 35.4679 170.774 34.0153 169.305C30.2628 165.632 26.2681 161.47 22.7576 158.043C21.5471 156.941 1.08946 136.62 0.363153 135.396L39.7047 95.8566ZM90.6672 135.029C89.6988 134.417 85.7041 130.5 84.7357 129.398L62.3413 106.874C60.5255 104.915 58.5887 103.201 56.7729 101.243L46.2415 90.7152C46.2415 90.7152 45.9994 90.7152 45.8783 89.9808H90.7883V135.029H90.6672ZM118.872 107.608L119.114 61.5808H73.478L48.0573 87.1652C46.1204 89.2463 45.8783 89.8583 44.3047 89.8583H0V180.689C12.2262 180.934 24.6944 180.689 36.9206 180.689C46.9678 180.689 44.1836 179.832 47.9362 183.382C54.7151 189.87 61.8571 197.46 68.6359 204.193C69.4833 205.05 70.0885 205.539 70.9359 206.519C74.5674 210.191 72.5096 209.212 82.1936 209.212H100.593C106.283 209.212 113.546 209.579 118.993 209.212C119.235 205.172 118.993 200.398 118.993 196.236V170.774C118.993 162.694 119.841 164.653 116.088 160.858C114.877 159.757 91.5146 136.865 90.7883 135.274L115.241 110.546C115.241 110.546 118.025 107.608 118.63 107.486L118.872 107.608Z" fill="#0F2466"/>
<path fill-rule="evenodd" clip-rule="evenodd" d="M328.052 102.772C338.22 102.65 352.383 102.528 362.43 102.772V172.915H326.478V102.772H328.173H328.052ZM379.135 178.179C379.499 175.853 379.256 110.852 379.256 103.14C379.256 99.2224 379.62 97.019 378.046 93.9586C374.778 87.3483 368.967 87.3483 363.399 87.3483H342.094C335.194 87.3483 327.689 87.1035 320.91 87.3483C315.099 87.5931 310.5 91.7552 309.652 97.2638C309.168 100.202 309.531 155.9 309.531 161.531C309.531 166.795 308.805 177.69 310.742 181.607C314.131 188.462 319.82 188.217 325.51 188.217H346.815C353.836 188.217 361.099 188.34 368.12 188.217C374.051 188.095 378.409 183.81 379.256 178.179H379.135Z" fill="#0F2466"/>
<path fill-rule="evenodd" clip-rule="evenodd" d="M672.923 144.811V172.844C672.923 172.844 673.165 173.089 672.197 173.211C672.197 173.211 671.349 173.211 671.228 173.211C665.781 173.211 641.692 173.456 639.634 173.211C639.15 171.742 639.15 146.036 639.634 144.811H668.807C669.655 144.811 672.197 144.567 672.923 144.934V144.811ZM632.25 188.023C641.692 188.023 651.255 188.023 660.818 188.023C670.381 188.023 680.065 188.268 689.628 188.023V142.241C689.628 127.061 689.87 111.76 689.507 96.5804C689.507 93.1528 685.149 88.5011 680.186 87.6442C675.949 86.9097 666.628 87.3994 661.907 87.3994C657.792 87.3994 625.955 87.0321 624.987 87.6442C624.503 88.5011 624.745 100.498 624.866 102.701C626.439 103.191 670.139 102.946 672.923 102.824V129.265C663.118 129.265 653.313 129.265 643.508 129.265C638.908 129.265 633.46 128.653 629.708 130.244C620.75 134.039 622.808 144.444 622.808 153.013V167.948C622.808 174.925 621.597 181.168 627.166 185.698C628.134 186.554 630.555 188.023 632.371 187.901L632.25 188.023Z" fill="#0F2466"/>
<path fill-rule="evenodd" clip-rule="evenodd" d="M541.58 187.85H558.406C558.769 183.321 558.406 150.636 558.406 145.128C558.406 141.21 558.043 103.14 558.648 102.65C559.859 102.16 584.916 102.528 588.548 102.528C593.39 102.528 592.301 100.202 592.301 113.667C592.301 118.441 592.543 124.195 592.301 128.969H564.096C564.338 130.315 571.359 142.434 572.085 143.781L588.427 173.16C589.395 174.996 595.932 187.115 596.658 187.85C598.232 188.462 612.032 187.972 614.937 188.095C614.453 185.891 591.332 146.107 590.848 144.026C597.385 144.026 601.379 144.638 605.374 140.965C609.49 137.048 609.127 133.131 609.127 126.765V109.016C609.127 103.384 609.853 97.019 607.311 92.8569C604.648 88.5725 601.137 87.3483 594.964 87.3483C590.364 87.3483 543.517 87.1035 541.338 87.3483V187.972L541.58 187.85Z" fill="#0F2466"/>
<path fill-rule="evenodd" clip-rule="evenodd" d="M229.024 88.4123V134.562C229.024 138.724 231.808 142.397 234.592 144.11C238.466 146.436 242.945 145.824 247.908 145.824C257.955 145.824 267.881 145.824 277.929 145.824V172.878H233.14V188.179C235.803 188.424 249.724 188.179 253.718 188.179H274.297C281.439 188.179 287.128 189.159 291.486 184.752C295.965 180.222 294.997 175.204 294.997 167.614C294.997 142.029 294.755 115.466 294.997 89.8812C294.997 86.8209 295.481 87.3106 292.455 87.3106H278.05C277.444 90.983 278.413 128.074 277.807 130.645H246.213C245.729 127.952 246.455 90.0037 245.971 87.3106H231.324C229.629 87.3106 229.145 86.8209 229.145 88.4123H229.024Z" fill="#0F2466"/>
<path fill-rule="evenodd" clip-rule="evenodd" d="M527.17 188.051V172.871H483.471C483.107 171.158 483.107 145.573 483.471 144.471H525.717V129.415H483.35V102.606H527.291C527.291 99.9129 527.654 89.1405 527.17 87.3042H485.528C481.171 87.3042 476.692 86.8146 473.06 88.5284C464.708 92.4456 466.523 101.871 466.523 109.951V165.894C466.523 175.564 465.192 183.154 473.181 187.071C476.692 188.785 481.776 188.295 486.134 188.295C491.702 188.295 524.749 188.54 527.291 188.295L527.17 188.051Z" fill="#0F2466"/>
<path fill-rule="evenodd" clip-rule="evenodd" d="M410.729 102.723H453.823L453.702 87.2987C449.344 87.5436 444.502 87.2987 440.023 87.2987H412.424C407.945 87.2987 403.587 86.8091 400.076 88.6453C392.45 92.4401 393.661 100.519 393.661 109.945V165.643C393.661 175.314 392.45 183.149 400.076 186.943C403.587 188.657 408.308 188.168 412.666 188.168C426.102 188.168 440.628 187.923 453.702 188.168V172.866H410.487V102.723H410.729Z" fill="#0F2466"/>
<path fill-rule="evenodd" clip-rule="evenodd" d="M200.095 117.108C201.548 114.905 202.758 112.946 204.09 111.11C205.785 108.662 219.827 88.0964 219.948 87.2395H200.579L167.654 134.981C167.896 136.083 171.285 140.612 172.253 141.836L204.937 188.108H226C225.879 187.007 188.595 136.939 187.869 134.858L200.095 116.986V117.108Z" fill="#0F2466"/>
<path fill-rule="evenodd" clip-rule="evenodd" d="M149.494 188.156H166.32C166.683 185.953 166.32 166.856 166.32 162.939C166.32 159.389 166.683 88.0221 166.078 87.5324C165.109 87.0428 151.551 87.2876 149.251 87.41V188.279L149.494 188.156Z" fill="#0F2466"/>
</svg>
