<svg width="452" height="298" viewBox="0 0 452 298" fill="none" xmlns="http://www.w3.org/2000/svg">
<path d="M191.563 118.672C183.528 118.672 174.39 122.673 168.807 130.684L168.811 130.668L168.807 130.672L168.811 119.93H149.647V194.903H168.807V152.242C168.807 144.564 174.349 136.402 184.609 136.402C192.538 136.402 200.743 142.328 200.743 152.242V194.903H219.907V148.427C219.907 131.183 208.423 118.672 191.563 118.672Z" fill="#0F2466"/>
<path d="M356.111 119.914L338.786 170.984L321.462 119.914H299.57L328.283 194.864H349.284L377.997 119.914H356.111Z" fill="#0F2466"/>
<path d="M92.4421 142.502C95.7058 137.795 100.904 135.031 107.182 135.031C114.087 135.031 119.327 139.268 122.035 145.521L88.5548 160.444C87.6406 152.786 89.4653 146.796 92.4421 142.502ZM129.258 171.836C121.193 178.248 116.584 179.778 109.23 179.778C102.611 179.778 97.4284 177.57 93.7754 173.699L142.767 151.865C141.698 143.728 138.823 136.459 134.4 130.932C127.963 122.9 118.435 118.651 106.835 118.651C85.7632 118.651 69.8748 135.351 69.8748 157.408C69.8748 180.038 85.8011 196.162 108.946 196.162C121.915 196.162 135.174 189.559 141.377 181.844L129.258 171.836Z" fill="#0F2466"/>
<path d="M68.0464 175.996H24.491V97.5031H5.06665V194.899H68.0464V175.996Z" fill="#0F2466"/>
<path d="M412.41 136.293C401.71 136.293 393.94 145.006 393.94 157.4C393.94 169.234 402.171 178.508 412.669 178.508C423.375 178.508 431.139 169.555 431.139 157.4C431.139 145.566 422.914 136.293 412.41 136.293ZM412.41 196.15C391.454 196.15 375.033 179.376 375.033 157.4C375.033 135.672 391.566 118.651 412.669 118.651C433.625 118.651 450.044 135.424 450.044 157.4C450.044 179.125 433.513 196.15 412.41 196.15Z" fill="#0F2466"/>
<path d="M264.866 136.293C254.164 136.293 246.397 145.006 246.397 157.4C246.397 169.234 254.625 178.508 265.126 178.508C275.829 178.508 283.596 169.555 283.596 157.4C283.596 145.566 275.368 136.293 264.866 136.293ZM264.866 196.15C243.908 196.15 227.49 179.376 227.49 157.4C227.49 135.672 244.021 118.651 265.126 118.651C286.082 118.651 302.503 135.424 302.503 157.4C302.503 179.125 285.967 196.15 264.866 196.15Z" fill="#0F2466"/>
</svg>
