<svg width="642" height="298" viewBox="0 0 642 298" fill="none" xmlns="http://www.w3.org/2000/svg">
<g clip-path="url(#clip0_585_6274)">
<mask id="mask0_585_6274" style="mask-type:luminance" maskUnits="userSpaceOnUse" x="-2" y="82" width="634" height="132">
<path d="M631.934 82.1078H-1.53857V213.673H631.934V82.1078Z" fill="white"/>
</mask>
<g mask="url(#mask0_585_6274)">
<path d="M179.531 115.745H206.199C233.688 115.745 239.842 119.312 239.842 138.73C239.842 156.166 233.277 160.129 207.84 160.129H201.275V179.943H179.531V115.745ZM208.25 147.052C217.687 147.052 218.097 146.259 218.097 138.73C218.097 129.615 217.687 129.615 208.25 129.615H201.275V147.052H208.25ZM245.996 147.844C245.996 122.086 250.919 114.953 276.766 114.953C303.024 114.953 307.537 122.482 307.537 147.844C307.537 173.206 302.613 180.736 276.766 180.736C250.919 180.736 245.996 173.603 245.996 147.844ZM286.613 147.844C286.613 130.804 286.203 129.615 277.177 129.615C268.151 129.615 267.33 130.804 267.33 147.844C267.33 164.884 267.741 166.073 276.766 166.073C285.792 166.073 286.613 165.281 286.613 147.844ZM315.335 165.281C315.335 165.281 323.54 165.677 333.795 165.677C345.695 165.677 348.977 164.884 348.977 161.318C348.977 158.94 348.155 157.751 344.053 156.959L330.513 153.788C316.974 150.222 313.692 146.655 313.692 135.163C313.692 121.293 322.308 114.953 344.053 114.953C354.311 114.953 364.566 116.142 364.566 116.142L364.155 130.804C364.155 130.804 355.129 130.408 346.106 130.408C336.258 130.408 333.384 131.201 333.384 134.767C333.384 137.541 334.616 138.73 339.129 139.522L353.079 142.693C366.619 145.863 368.258 151.411 368.258 161.714C368.258 177.169 358.413 181.528 337.079 181.528C326 181.528 314.103 180.339 314.103 180.339L315.335 165.281ZM377.284 115.745H399.032V179.943H377.284V115.745ZM424.058 130.408H406.416V115.745H463.445V130.012H445.803V179.547H424.469L424.058 130.408ZM470.829 115.745H492.574V179.943H470.829V115.745ZM545.5 115.745H567.244L548.781 179.943H518.01L499.55 115.745H521.295L533.192 168.451L545.5 115.745ZM570.118 147.844C570.118 122.086 575.039 114.953 600.889 114.953C627.147 114.953 631.66 122.482 631.66 147.844C631.66 173.206 626.737 180.736 600.889 180.736C575.039 180.736 570.118 173.603 570.118 147.844ZM610.323 147.844C610.323 130.804 609.916 129.615 600.889 129.615C591.863 129.615 591.452 130.804 591.452 147.844C591.452 164.884 591.863 166.073 600.889 166.073C609.916 166.073 610.323 165.281 610.323 147.844Z" fill="#0F2466"/>
<path d="M112.614 82.8354C93.3313 82.0426 76.9203 81.6464 57.6369 82.0426C25.2249 82.4391 -1.03308 107.801 -1.44336 139.107C-1.44336 154.166 -1.44336 166.847 -1.03308 181.906C-1.03308 183.491 0.608042 184.68 2.24917 184.68C2.65945 184.68 3.48 184.68 3.89029 184.283L19.8912 175.961C28.0969 171.999 33.8406 164.469 34.6614 155.751C36.7127 145.448 39.9948 135.541 42.4566 127.219C45.3285 117.708 46.9698 108.197 46.5595 98.2902C46.149 95.1201 48.6108 91.9498 51.8929 91.5536C54.3548 91.1571 56.4061 92.346 57.6369 94.3274C63.3808 103.046 65.0221 113.745 62.9705 123.652C62.5603 127.615 65.4324 130.785 69.535 131.182H71.1763C81.4331 131.182 91.28 131.578 101.127 132.767C105.64 133.163 108.922 136.333 109.743 140.296C111.794 154.166 109.743 168.432 103.588 181.113C98.665 189.831 92.1005 192.605 81.4331 196.568C69.535 200.927 51.8929 207.268 51.8929 207.268C50.2519 207.664 49.4314 209.249 49.4314 210.834C49.8416 212.023 51.0724 213.212 52.3035 213.212H77.7408C110.153 212.816 136.821 187.453 136.821 156.147C136.821 137.918 136.821 122.86 136 104.631C134.77 93.1388 124.923 83.6278 112.614 82.8354Z" fill="#0F2466"/>
</g>
</g>
<defs>
<clipPath id="clip0_585_6274">
<rect width="641.467" height="297.641" fill="white"/>
</clipPath>
</defs>
</svg>
