<svg width="505" height="298" viewBox="0 0 505 298" fill="none" xmlns="http://www.w3.org/2000/svg">
<path d="M291.622 93.5747L321.29 170.241L346.625 93.5747H373.96L373.627 96.4142L337.425 197.003C328.491 213.685 309.423 210.064 302.289 193.666C288.688 160.728 276.688 126.939 263.954 93.5747H291.622Z" fill="#0F2466"/>
<path d="M23.9347 93.5747V168.466C23.9347 177.694 36.2021 186.497 44.3359 186.568C52.4697 186.639 65.2705 178.617 65.2705 169.176V93.5747H89.9386V172.015C89.9386 173.364 88.0052 179.043 87.4051 180.676C73.871 215.53 22.5347 217.873 5.20031 185.645C1.53505 178.83 0 173.719 0 170.596V93.5747H24.0014H23.9347Z" fill="#0F2466"/>
<path d="M152.617 113.448C142.417 113.802 133.683 121.966 130.283 131.904C126.882 141.842 127.949 139.784 127.949 141.487V207.86H103.948V132.969C103.948 131.691 105.348 126.651 105.748 124.947C110.748 105.994 125.816 93.9261 144.217 92.7903C145.684 92.7194 152.551 92.3644 152.551 93.8551V113.377L152.617 113.448Z" fill="#0F2466"/>
<path d="M484.889 150.581C484.889 182.739 460.42 208.791 430.219 208.791C400.017 208.791 375.549 182.739 375.549 150.581C375.549 118.424 400.017 92.3721 430.219 92.3721C460.42 92.3721 484.889 118.424 484.889 150.581ZM427.752 113.668C384.416 118.566 398.083 203.112 439.886 185.507C472.288 171.878 462.087 109.764 427.752 113.668Z" fill="#0F2466"/>
<path d="M262.681 150.581C262.681 182.739 238.212 208.791 208.011 208.791C177.809 208.791 153.341 182.739 153.341 150.581C153.341 118.424 177.809 92.3721 208.011 92.3721C238.212 92.3721 262.681 118.424 262.681 150.581ZM205.077 113.668C167.942 117.927 170.408 191.683 211.544 187.282C248.213 183.377 244.613 109.125 205.077 113.668Z" fill="#0F2466"/>
<path d="M504.966 77.2692C504.966 85.9296 498.366 92.9573 490.232 92.9573C482.098 92.9573 475.498 85.9296 475.498 77.2692C475.498 68.6088 482.098 61.5811 490.232 61.5811C498.366 61.5811 504.966 68.6088 504.966 77.2692ZM503.299 77.2692C503.299 69.6026 497.432 63.3557 490.232 63.3557C483.031 63.3557 477.164 69.6026 477.164 77.2692C477.164 84.9358 483.031 91.1826 490.232 91.1826C497.432 91.1826 503.299 84.9358 503.299 77.2692Z" fill="#0F2466"/>
<path d="M483.967 67.9093C488.367 68.3352 495.701 65.8507 496.034 72.5235C496.301 77.5635 493.568 77.3506 493.368 78.2734C493.168 79.1962 496.768 84.9462 495.968 87.0758C493.034 87.6437 491.701 78.7703 490.901 78.4864C490.101 78.2024 487.901 78.7703 486.634 78.4864C486.434 80.1191 487.367 86.5789 485.634 87.0048C483.9 87.4307 483.967 86.224 483.967 85.94V67.9093ZM485.901 76.4277C496.901 78.3444 496.901 68.0513 485.901 70.0389V76.4277Z" fill="#0F2466"/>
</svg>
