<svg width="370" height="298" viewBox="0 0 370 298" fill="none" xmlns="http://www.w3.org/2000/svg">
<g clip-path="url(#clip0_585_6289)">
<path d="M150.497 174.784C156.619 174.784 161.575 169.474 161.575 162.916C161.575 156.358 156.619 151.056 150.497 151.056C144.379 151.056 139.409 156.358 139.409 162.916C139.409 169.474 144.379 174.784 150.497 174.784Z" fill="#0F2466"/>
<path d="M222.451 190.302C211.148 190.302 200.875 185.473 192.7 172.342C184.527 159.224 174.449 141.923 168.91 133.102C163.534 124.552 158.496 120.116 149.836 120.116C141.186 120.116 136.141 124.552 130.768 133.102C125.222 141.923 115.138 159.224 106.973 172.342C98.7974 185.473 88.5197 190.302 77.2238 190.302C65.9256 190.302 55.6457 185.473 47.4798 172.342C39.2998 159.224 29.706 143.749 24.1739 134.936C18.7916 126.381 13.7488 121.8 5.09135 121.8L5.08667 107.218C17.5977 107.218 28.2077 113.618 36.968 127.792C45.7053 141.963 52.2488 152.285 58.0149 161.807C63.7834 171.325 69.285 175.85 77.2238 175.85C85.1557 175.85 90.6525 171.325 96.4327 161.807C102.204 152.285 109.22 140.139 117.96 125.965C126.722 111.794 137.335 105.391 149.836 105.391C162.335 105.391 172.96 111.794 181.706 125.965C190.462 140.139 197.467 152.285 203.242 161.807C209.008 171.325 214.51 175.993 222.451 175.993V190.302Z" fill="#0F2466"/>
<path d="M254.722 102.635C248.026 109.82 243.928 116.087 243.928 134.332C243.928 155.437 243.928 190.573 243.928 190.573H258.67V133.558C258.67 124.617 259.266 120.309 263.508 115.618L254.722 102.635Z" fill="#0F2466"/>
<path d="M286.435 147.842C286.435 123.121 305.149 103.086 328.252 103.086C351.339 103.086 370.062 123.121 370.062 147.842C370.062 172.558 351.343 192.593 328.252 192.593C305.149 192.593 286.435 172.558 286.435 147.842ZM328.252 177.745C343.23 177.745 355.377 164.358 355.377 147.842C355.377 131.33 343.226 117.934 328.252 117.934C313.267 117.934 301.125 131.33 301.125 147.842C301.125 164.358 313.267 177.745 328.252 177.745Z" fill="#0F2466"/>
</g>
<defs>
<clipPath id="clip0_585_6289">
<rect width="369.485" height="297.641" fill="white"/>
</clipPath>
</defs>
</svg>
