<svg width="575" height="298" viewBox="0 0 575 298" fill="none" xmlns="http://www.w3.org/2000/svg">
<path d="M3.72852 105.541L53.9883 98.3669V148.88H3.72852M60.0419 97.342L126.633 87.2395V148.441H60.0419M3.72852 154.21H53.9883V204.869L3.72852 197.548M60.0419 154.883H126.633V215.499L60.0419 205.689M164.222 112.13L173.739 112.188L188.521 167.973C189.577 171.867 190.351 175.85 190.83 179.891C195.983 157.05 203.022 134.795 208.991 112.247L217.227 112.276L229.954 160.593C231.544 167.006 233.614 173.331 234.248 179.92C238.893 157.079 245.552 134.824 250.86 112.276L260.236 112.232L239.4 189.832H229.264L214.2 134.048C213.355 131.047 213.003 127.943 212.736 124.824C212.342 127.504 211.976 130.212 211.328 132.833L196.123 189.642C192.744 189.832 189.366 189.847 185.987 189.818L164.306 112.218M265.586 112.716C265.765 111.238 266.479 109.886 267.582 108.936C268.686 107.986 270.096 107.509 271.526 107.603C272.954 107.696 274.297 108.352 275.277 109.438C276.259 110.524 276.805 111.958 276.805 113.448C276.805 114.937 276.259 116.371 275.277 117.457C274.297 118.543 272.954 119.199 271.526 119.293C270.096 119.386 268.686 118.909 267.582 117.959C266.479 117.009 265.765 115.658 265.586 114.18M266.853 134.092H275.301V189.73H266.853M298.05 143.053C302.878 134.121 314.141 129.993 323.222 134.121C330.445 137.05 333.134 145.747 333.36 153.155C333.753 165.337 333.43 177.533 333.527 189.715C330.712 189.715 327.897 189.715 325.082 189.7C324.939 177.987 325.361 166.274 324.885 154.561C324.659 148.763 322.293 141.794 316.225 140.315C307.357 137.533 298.529 145.835 298.247 154.956C297.994 166.523 298.233 178.134 298.15 189.715H289.702V134.092H298.15L298.037 143.053M383.843 107.737H392.291V189.73H383.873L383.633 180.798C377.537 192.189 361.247 194.708 351.957 186.26C345.298 180.301 343.269 170.593 343.622 161.808C343.692 152.906 346.507 143.506 353.337 137.65C362.205 130.066 377.833 130.505 384.026 141.647L383.97 107.679M365.809 140.037C359.051 141.149 354.476 147.562 353.211 154.195C351.548 162.189 351.844 171.472 356.688 178.207C361.925 185.44 373.441 185.601 379.071 178.763C382.871 174.634 383.97 168.719 383.999 163.243C384.042 157.387 384.519 150.798 380.788 145.966C377.494 141.091 371.355 138.895 365.865 140.11M424.672 132.789C432.203 132.101 440.581 133.331 446.211 138.997C452.603 145.146 454.516 154.663 454.15 163.302C454.053 171.135 451.265 179.115 445.745 184.532C434.229 195.425 412.804 193.024 405.484 178.06C399.738 165.513 400.892 148.192 411.396 138.675C415.153 135.366 419.912 133.843 424.629 132.76M423.109 140.725C410.721 144.678 408.608 161.516 412.478 172.643C415.576 182.482 427.544 186.845 436.272 182.248C442.115 179.466 444.776 172.585 445.339 166.289C445.971 158.968 445.409 150.622 440.411 144.912C436.188 139.963 429.035 138.909 423.095 140.71M458.459 134.092H467.273L477.691 173.917C478.393 176.406 478.676 178.983 478.929 181.56C482.915 165.601 487.939 149.934 492.471 134.121L500.174 134.165C504.044 149.978 508.859 165.498 512.069 181.604C515.377 165.791 520.095 150.125 523.755 134.458C526.57 134.312 529.415 134.268 532.259 134.239L516.348 189.876H507.594C503.791 174.795 498.863 160.008 495.768 144.781C492.105 160.008 486.997 174.795 482.815 189.876H474.367L458.459 134.239M552.783 132.628C558.063 132.247 563.44 132.775 568.411 134.795C569.792 137.518 568.721 141.091 569.044 144.165C563.131 140.315 554.966 137.87 548.49 141.779C544.085 144.268 543.872 151.633 548.167 154.371C554.32 158.514 562.132 159.598 567.596 164.912C573.619 170.945 572.155 182.482 565.104 187.021C556.516 192.702 545.253 192.146 536.242 187.812L536.172 177.973C542.564 183.039 551.518 185.85 559.261 182.248C563.723 179.905 563.949 172.789 560.02 169.803C553.868 165.088 545.379 164.341 540.029 158.456C534.638 152.804 535.61 142.35 541.62 137.665C544.717 134.692 548.94 133.799 552.883 132.643" fill="#0F2466"/>
</svg>
