<svg width="580" height="298" viewBox="0 0 580 298" fill="none" xmlns="http://www.w3.org/2000/svg">
<path d="M124.795 152.721L111.856 138.697V177.893H124.795V152.721Z" fill="#0F2466"/>
<path d="M72.3576 110.651H104.365L91.426 96.986H74.4007C85.2969 95.9072 94.15 86.1981 94.15 74.3315C94.15 61.7457 84.6159 51.3174 72.3576 51.3174V96.986L36.264 59.2285C34.221 60.3073 32.5185 61.3861 30.8159 62.4648C28.7729 63.9032 27.0704 65.3416 25.0273 66.78L59.0779 102.74V181.491L85.2969 209.18V189.402L72.0171 175.378L72.3576 110.651Z" fill="#0F2466"/>
<path d="M85.2952 110.653V177.898H98.5749V124.678L85.2952 110.653Z" fill="#0F2466"/>
<path d="M130.583 138.7L117.303 124.675H98.5754L111.855 138.7H130.583Z" fill="#0F2466"/>
<path d="M45.7985 168.192V108.499L15.4935 76.4951C12.7694 80.0911 10.0454 84.0466 8.00236 88.3618L32.5188 114.253V134.03L2.89477 102.746C1.53275 108.14 0.851736 113.893 0.51123 120.006C0.851736 120.006 44.4365 166.754 45.7985 168.192Z" fill="#0F2466"/>
<path d="M1.19263 139.78V159.558L85.2975 248.378V228.959L1.19263 139.78Z" fill="#0F2466"/>
<path d="M151.355 160.638H138.075V178.258H124.795C124.795 190.844 134.67 201.272 146.588 201.272C158.505 201.272 168.38 190.844 168.38 178.258L151.355 160.638Z" fill="#0F2466"/>
<path d="M259.295 178.252L248.739 198.03H187.108L226.947 117.121H191.534L201.409 97.3428H263.041L223.202 178.252H259.295Z" fill="#0F2466"/>
<path d="M294.364 137.617H325.691V157.395H294.364V178.252H325.691V198.03H270.869V97.3428H325.691V117.121H294.364V137.617Z" fill="#0F2466"/>
<path d="M359.404 180.768H367.916C377.791 180.768 381.877 177.172 381.877 169.261C381.877 164.586 380.175 160.99 376.77 158.832C374.045 157.394 372.002 157.034 364.852 157.034H359.404V180.768ZM359.404 139.055H365.192C375.748 139.055 380.175 135.459 380.175 127.188C380.175 118.917 375.748 115.681 364.852 115.681H359.404V139.055ZM368.938 97.3415C381.196 97.3415 388.006 98.7799 393.454 102.016C399.924 106.331 404.01 114.962 404.01 124.671C404.01 131.863 401.967 137.616 397.54 142.291C394.816 145.168 392.773 146.606 387.666 148.044C393.454 149.483 396.178 150.921 399.243 153.798C403.669 158.113 405.713 163.867 405.713 171.418C405.713 180.768 401.967 189.038 395.838 193.354C391.071 196.59 385.282 198.028 375.748 198.028H336.59V96.9819L368.938 97.3415Z" fill="#0F2466"/>
<path d="M445.895 145.168C455.429 145.168 461.218 140.133 461.218 131.144C461.218 122.873 455.77 117.119 447.598 117.119H438.745V145.168H445.895ZM438.404 198.028H415.25V96.9819H446.236C458.835 96.9819 468.028 99.4991 474.498 104.533C480.967 109.927 484.713 118.917 484.713 130.065C484.713 145.527 478.584 155.596 466.326 160.63L487.437 197.669H459.516L438.745 158.473L438.404 198.028Z" fill="#0F2466"/>
<path d="M523.528 158.834L533.062 126.11L542.596 158.834H523.528ZM548.385 97.3428H518.761L487.094 198.389H511.61L517.399 178.611H548.385L554.174 198.389H579.371L548.385 97.3428Z" fill="#0F2466"/>
</svg>
